<svg viewBox="0 0 512 512" fill="none" xmlns="http://www.w3.org/2000/svg"><g class="gradient-path"><g class="element-path"><path class="path-segment" d="M411,222.82L397.83,231.57L384.25,239.68Z" stroke="rgb(115, 53, 211)" stroke-width="32"></path><path class="path-segment" d="M384.25,239.68L370.48,247.45L356.58,254.99Z" stroke="rgb(118, 57, 212)" stroke-width="32"></path><path class="path-segment" d="M356.58,254.99L342.59,262.38L328.54,269.64Z" stroke="rgb(121, 62, 213)" stroke-width="32"></path><path class="path-segment" d="M328.54,269.64L314.45,276.81L300.31,283.9Z" stroke="rgb(123, 66, 214)" stroke-width="32"></path><path class="path-segment" d="M300.31,283.9L286.15,290.93L271.95,297.91Z" stroke="rgb(126, 70, 216)" stroke-width="32"></path><path class="path-segment" d="M271.95,297.91L257.74,304.85L243.51,311.75Z" stroke="rgb(129, 74, 217)" stroke-width="32"></path><path class="path-segment" d="M243.51,311.75L229.27,318.62L215.02,325.48Z" stroke="rgb(131, 78, 218)" stroke-width="32"></path><path class="path-segment" d="M215.02,325.48L200.77,332.34L186.52,339.2Z" stroke="rgb(134, 83, 220)" stroke-width="32"></path><path class="path-segment" d="M186.52,339.2L172.31,346.13L158.26,353.4Z" stroke="rgb(137, 87, 221)" stroke-width="32"></path><path class="path-segment" d="M158.26,353.4L144.87,361.81L132.32,371.42Z" stroke="rgb(139, 91, 222)" stroke-width="32"></path><path class="path-segment" d="M132.32,371.42L121.04,382.48L111.7,395.22Z" stroke="rgb(142, 95, 223)" stroke-width="32"></path><path class="path-segment" d="M111.7,395.22L105.37,409.66L103.4,425.29Z" stroke="rgb(145, 99, 225)" stroke-width="32"></path><path class="path-segment" d="M103.4,425.29L107.89,440.23L118.56,451.78Z" stroke="rgb(147, 104, 226)" stroke-width="32"></path><path class="path-segment" d="M118.56,451.78L132.87,458.25L148.59,459.19Z" stroke="rgb(150, 108, 227)" stroke-width="32"></path><path class="path-segment" d="M148.59,459.19L164.06,456.05L178.78,450.31Z" stroke="rgb(153, 112, 228)" stroke-width="32"></path><path class="path-segment" d="M178.78,450.31L192.75,442.9L205.96,434.22Z" stroke="rgb(155, 116, 230)" stroke-width="32"></path><path class="path-segment" d="M205.96,434.22L218,423.99L228.57,412.24Z" stroke="rgb(158, 120, 231)" stroke-width="32"></path><path class="path-segment" d="M228.57,412.24L237.58,399.25L245.18,385.39Z" stroke="rgb(161, 125, 232)" stroke-width="32"></path><path class="path-segment" d="M245.18,385.39L251.7,370.98L257.49,356.27Z" stroke="rgb(163, 129, 233)" stroke-width="32"></path><path class="path-segment" d="M257.49,356.27L262.88,341.4L268.1,326.47Z" stroke="rgb(166, 133, 235)" stroke-width="32"></path><path class="path-segment" d="M268.1,326.47L273.36,311.56L278.77,296.7Z" stroke="rgb(169, 137, 236)" stroke-width="32"></path><path class="path-segment" d="M278.77,296.7L284.47,281.95L290.53,267.34Z" stroke="rgb(171, 141, 237)" stroke-width="32"></path><path class="path-segment" d="M290.53,267.34L296.91,252.87L303.57,238.52Z" stroke="rgb(174, 146, 239)" stroke-width="32"></path><path class="path-segment" d="M303.57,238.52L310.48,224.3L317.59,210.17Z" stroke="rgb(177, 150, 240)" stroke-width="32"></path><path class="path-segment" d="M317.59,210.17L324.9,196.15L332.36,182.21Z" stroke="rgb(179, 154, 241)" stroke-width="32"></path><path class="path-segment" d="M332.36,182.21L339.97,168.34L347.7,154.54Z" stroke="rgb(182, 158, 242)" stroke-width="32"></path><path class="path-segment" d="M347.7,154.54L355.53,140.8L363.44,127.11Z" stroke="rgb(185, 162, 244)" stroke-width="32"></path><path class="path-segment" d="M363.44,127.11L371.41,113.44L379.4,99.8Z" stroke="rgb(187, 167, 245)" stroke-width="32"></path><path class="path-segment" d="M379.4,99.8L387.4,86.16L395.37,72.5Z" stroke="rgb(190, 171, 246)" stroke-width="32"></path><path class="path-segment" d="M395.37,72.5L403.26,58.79L411,45Z" stroke="rgb(193, 175, 247)" stroke-width="32"></path></g></g></svg>